<mxfile host="app.diagrams.net" modified="2023-05-17T02:45:01.964Z" agent="Mozilla/5.0 (Windows NT 10.0; Win64; x64) AppleWebKit/537.36 (KHTML, like Gecko) Chrome/113.0.0.0 Safari/537.36 Edg/113.0.1774.42" etag="nMHzOAlkZWVZUZbyZQuP" version="21.3.2" type="google">
  <diagram id="C5RBs43oDa-KdzZeNtuy" name="Page-1">
    <mxGraphModel grid="1" page="1" gridSize="10" guides="1" tooltips="1" connect="1" arrows="1" fold="1" pageScale="1" pageWidth="827" pageHeight="1169" math="0" shadow="0">
      <root>
        <mxCell id="WIyWlLk6GJQsqaUBKTNV-0" />
        <mxCell id="WIyWlLk6GJQsqaUBKTNV-1" parent="WIyWlLk6GJQsqaUBKTNV-0" />
        <mxCell id="-CIr8k7pkAFZVgyKMaRs-4" value="&lt;font style=&quot;font-size: 20px;&quot;&gt;Login&lt;/font&gt;" style="swimlane;fontStyle=1;align=center;verticalAlign=top;childLayout=stackLayout;horizontal=1;startSize=40;horizontalStack=0;resizeParent=1;resizeParentMax=0;resizeLast=0;collapsible=1;marginBottom=0;whiteSpace=wrap;html=1;" vertex="1" parent="WIyWlLk6GJQsqaUBKTNV-1">
          <mxGeometry x="1120" y="40" width="200" height="110" as="geometry" />
        </mxCell>
        <mxCell id="-CIr8k7pkAFZVgyKMaRs-5" value="&lt;span style=&quot;font-size: 16px;&quot;&gt;- username : TextField&lt;br&gt;&lt;/span&gt;" style="text;strokeColor=none;fillColor=none;align=left;verticalAlign=top;spacingLeft=4;spacingRight=4;overflow=hidden;rotatable=0;points=[[0,0.5],[1,0.5]];portConstraint=eastwest;whiteSpace=wrap;html=1;" vertex="1" parent="-CIr8k7pkAFZVgyKMaRs-4">
          <mxGeometry y="40" width="200" height="30" as="geometry" />
        </mxCell>
        <mxCell id="-CIr8k7pkAFZVgyKMaRs-6" value="" style="line;strokeWidth=1;fillColor=none;align=left;verticalAlign=middle;spacingTop=-1;spacingLeft=3;spacingRight=3;rotatable=0;labelPosition=right;points=[];portConstraint=eastwest;strokeColor=inherit;" vertex="1" parent="-CIr8k7pkAFZVgyKMaRs-4">
          <mxGeometry y="70" width="200" height="10" as="geometry" />
        </mxCell>
        <mxCell id="-CIr8k7pkAFZVgyKMaRs-7" value="&lt;span style=&quot;font-size: 16px;&quot;&gt;+ Login()&amp;nbsp; &amp;nbsp; &amp;nbsp;: void&lt;/span&gt;" style="text;strokeColor=none;fillColor=none;align=left;verticalAlign=top;spacingLeft=4;spacingRight=4;overflow=hidden;rotatable=0;points=[[0,0.5],[1,0.5]];portConstraint=eastwest;whiteSpace=wrap;html=1;" vertex="1" parent="-CIr8k7pkAFZVgyKMaRs-4">
          <mxGeometry y="80" width="200" height="30" as="geometry" />
        </mxCell>
        <mxCell id="-CIr8k7pkAFZVgyKMaRs-8" value="&lt;font style=&quot;font-size: 20px;&quot;&gt;Client&lt;/font&gt;" style="swimlane;fontStyle=1;align=center;verticalAlign=top;childLayout=stackLayout;horizontal=1;startSize=40;horizontalStack=0;resizeParent=1;resizeParentMax=0;resizeLast=0;collapsible=1;marginBottom=0;whiteSpace=wrap;html=1;" vertex="1" parent="WIyWlLk6GJQsqaUBKTNV-1">
          <mxGeometry x="1080" y="600" width="280" height="190" as="geometry" />
        </mxCell>
        <mxCell id="-CIr8k7pkAFZVgyKMaRs-9" value="&lt;span style=&quot;font-size: 16px;&quot;&gt;- socket&amp;nbsp; &amp;nbsp; &amp;nbsp; &amp;nbsp;: Socket&lt;br&gt;- localhost&amp;nbsp; &amp;nbsp;: String&lt;br&gt;- port&amp;nbsp; &amp;nbsp; &amp;nbsp; &amp;nbsp; &amp;nbsp; &amp;nbsp;: int&amp;nbsp;&lt;br&gt;- username : String&lt;br&gt;&lt;/span&gt;" style="text;strokeColor=none;fillColor=none;align=left;verticalAlign=top;spacingLeft=4;spacingRight=4;overflow=hidden;rotatable=0;points=[[0,0.5],[1,0.5]];portConstraint=eastwest;whiteSpace=wrap;html=1;" vertex="1" parent="-CIr8k7pkAFZVgyKMaRs-8">
          <mxGeometry y="40" width="280" height="90" as="geometry" />
        </mxCell>
        <mxCell id="-CIr8k7pkAFZVgyKMaRs-10" value="" style="line;strokeWidth=1;fillColor=none;align=left;verticalAlign=middle;spacingTop=-1;spacingLeft=3;spacingRight=3;rotatable=0;labelPosition=right;points=[];portConstraint=eastwest;strokeColor=inherit;" vertex="1" parent="-CIr8k7pkAFZVgyKMaRs-8">
          <mxGeometry y="130" width="280" height="10" as="geometry" />
        </mxCell>
        <mxCell id="-CIr8k7pkAFZVgyKMaRs-11" value="&lt;span style=&quot;font-size: 16px;&quot;&gt;+ Client(localhost: String, port: int)&lt;br&gt;+ Start()&amp;nbsp; &amp;nbsp; &amp;nbsp; : void&lt;br&gt;&lt;/span&gt;" style="text;strokeColor=none;fillColor=none;align=left;verticalAlign=top;spacingLeft=4;spacingRight=4;overflow=hidden;rotatable=0;points=[[0,0.5],[1,0.5]];portConstraint=eastwest;whiteSpace=wrap;html=1;" vertex="1" parent="-CIr8k7pkAFZVgyKMaRs-8">
          <mxGeometry y="140" width="280" height="50" as="geometry" />
        </mxCell>
        <mxCell id="-CIr8k7pkAFZVgyKMaRs-12" value="&lt;font style=&quot;font-size: 20px;&quot;&gt;Server&lt;/font&gt;" style="swimlane;fontStyle=1;align=center;verticalAlign=top;childLayout=stackLayout;horizontal=1;startSize=40;horizontalStack=0;resizeParent=1;resizeParentMax=0;resizeLast=0;collapsible=1;marginBottom=0;whiteSpace=wrap;html=1;" vertex="1" parent="WIyWlLk6GJQsqaUBKTNV-1">
          <mxGeometry x="300" y="350" width="240" height="170" as="geometry" />
        </mxCell>
        <mxCell id="-CIr8k7pkAFZVgyKMaRs-13" value="&lt;span style=&quot;font-size: 16px;&quot;&gt;- serverSocket : ServerSocket&amp;nbsp;&lt;br&gt;- port&amp;nbsp; &amp;nbsp; &amp;nbsp; &amp;nbsp; &amp;nbsp; &amp;nbsp; &amp;nbsp; &amp;nbsp; : int&lt;br&gt;&lt;/span&gt;" style="text;strokeColor=none;fillColor=none;align=left;verticalAlign=top;spacingLeft=4;spacingRight=4;overflow=hidden;rotatable=0;points=[[0,0.5],[1,0.5]];portConstraint=eastwest;whiteSpace=wrap;html=1;" vertex="1" parent="-CIr8k7pkAFZVgyKMaRs-12">
          <mxGeometry y="40" width="240" height="50" as="geometry" />
        </mxCell>
        <mxCell id="-CIr8k7pkAFZVgyKMaRs-14" value="" style="line;strokeWidth=1;fillColor=none;align=left;verticalAlign=middle;spacingTop=-1;spacingLeft=3;spacingRight=3;rotatable=0;labelPosition=right;points=[];portConstraint=eastwest;strokeColor=inherit;" vertex="1" parent="-CIr8k7pkAFZVgyKMaRs-12">
          <mxGeometry y="90" width="240" height="10" as="geometry" />
        </mxCell>
        <mxCell id="-CIr8k7pkAFZVgyKMaRs-15" value="&lt;span style=&quot;font-size: 16px;&quot;&gt;+ Server(port: int)&lt;br&gt;+ Start()&amp;nbsp; &amp;nbsp; &amp;nbsp; &amp;nbsp; &amp;nbsp; &amp;nbsp;: void&lt;br&gt;+ Close()&amp;nbsp; &amp;nbsp; &amp;nbsp; &amp;nbsp; &amp;nbsp;: void&lt;br&gt;&lt;/span&gt;" style="text;strokeColor=none;fillColor=none;align=left;verticalAlign=top;spacingLeft=4;spacingRight=4;overflow=hidden;rotatable=0;points=[[0,0.5],[1,0.5]];portConstraint=eastwest;whiteSpace=wrap;html=1;" vertex="1" parent="-CIr8k7pkAFZVgyKMaRs-12">
          <mxGeometry y="100" width="240" height="70" as="geometry" />
        </mxCell>
        <mxCell id="-CIr8k7pkAFZVgyKMaRs-20" value="&lt;font style=&quot;font-size: 20px;&quot;&gt;TmplServer&lt;/font&gt;" style="swimlane;fontStyle=1;align=center;verticalAlign=top;childLayout=stackLayout;horizontal=1;startSize=40;horizontalStack=0;resizeParent=1;resizeParentMax=0;resizeLast=0;collapsible=1;marginBottom=0;whiteSpace=wrap;html=1;" vertex="1" parent="WIyWlLk6GJQsqaUBKTNV-1">
          <mxGeometry x="320" y="40" width="200" height="150" as="geometry" />
        </mxCell>
        <mxCell id="-CIr8k7pkAFZVgyKMaRs-21" value="&lt;span style=&quot;font-size: 16px;&quot;&gt;- port&amp;nbsp; &amp;nbsp; &amp;nbsp; &amp;nbsp; &amp;nbsp; &amp;nbsp; : TextField&lt;br&gt;- connect&amp;nbsp; &amp;nbsp; &amp;nbsp; : JButton&lt;br&gt;- disconnect : JButton&lt;br&gt;&lt;/span&gt;" style="text;strokeColor=none;fillColor=none;align=left;verticalAlign=top;spacingLeft=4;spacingRight=4;overflow=hidden;rotatable=0;points=[[0,0.5],[1,0.5]];portConstraint=eastwest;whiteSpace=wrap;html=1;" vertex="1" parent="-CIr8k7pkAFZVgyKMaRs-20">
          <mxGeometry y="40" width="200" height="70" as="geometry" />
        </mxCell>
        <mxCell id="-CIr8k7pkAFZVgyKMaRs-22" value="" style="line;strokeWidth=1;fillColor=none;align=left;verticalAlign=middle;spacingTop=-1;spacingLeft=3;spacingRight=3;rotatable=0;labelPosition=right;points=[];portConstraint=eastwest;strokeColor=inherit;" vertex="1" parent="-CIr8k7pkAFZVgyKMaRs-20">
          <mxGeometry y="110" width="200" height="10" as="geometry" />
        </mxCell>
        <mxCell id="-CIr8k7pkAFZVgyKMaRs-23" value="&lt;span style=&quot;font-size: 16px;&quot;&gt;+ Login()&amp;nbsp; &amp;nbsp; &amp;nbsp;: void&lt;/span&gt;" style="text;strokeColor=none;fillColor=none;align=left;verticalAlign=top;spacingLeft=4;spacingRight=4;overflow=hidden;rotatable=0;points=[[0,0.5],[1,0.5]];portConstraint=eastwest;whiteSpace=wrap;html=1;" vertex="1" parent="-CIr8k7pkAFZVgyKMaRs-20">
          <mxGeometry y="120" width="200" height="30" as="geometry" />
        </mxCell>
        <mxCell id="-CIr8k7pkAFZVgyKMaRs-24" value="&lt;font style=&quot;font-size: 20px;&quot;&gt;ServerThread&lt;/font&gt;" style="swimlane;fontStyle=1;align=center;verticalAlign=top;childLayout=stackLayout;horizontal=1;startSize=40;horizontalStack=0;resizeParent=1;resizeParentMax=0;resizeLast=0;collapsible=1;marginBottom=0;whiteSpace=wrap;html=1;" vertex="1" parent="WIyWlLk6GJQsqaUBKTNV-1">
          <mxGeometry x="280" y="680" width="280" height="130" as="geometry" />
        </mxCell>
        <mxCell id="-CIr8k7pkAFZVgyKMaRs-25" value="&lt;span style=&quot;font-size: 16px;&quot;&gt;- socket : Socket&amp;nbsp;&lt;br&gt;&lt;/span&gt;" style="text;strokeColor=none;fillColor=none;align=left;verticalAlign=top;spacingLeft=4;spacingRight=4;overflow=hidden;rotatable=0;points=[[0,0.5],[1,0.5]];portConstraint=eastwest;whiteSpace=wrap;html=1;" vertex="1" parent="-CIr8k7pkAFZVgyKMaRs-24">
          <mxGeometry y="40" width="280" height="30" as="geometry" />
        </mxCell>
        <mxCell id="-CIr8k7pkAFZVgyKMaRs-26" value="" style="line;strokeWidth=1;fillColor=none;align=left;verticalAlign=middle;spacingTop=-1;spacingLeft=3;spacingRight=3;rotatable=0;labelPosition=right;points=[];portConstraint=eastwest;strokeColor=inherit;" vertex="1" parent="-CIr8k7pkAFZVgyKMaRs-24">
          <mxGeometry y="70" width="280" height="10" as="geometry" />
        </mxCell>
        <mxCell id="-CIr8k7pkAFZVgyKMaRs-27" value="&lt;span style=&quot;font-size: 16px;&quot;&gt;+ ServerThread(socket : Socket)&lt;br&gt;+ close()&amp;nbsp; &amp;nbsp; &amp;nbsp; &amp;nbsp; &amp;nbsp;: void&lt;br&gt;&lt;/span&gt;" style="text;strokeColor=none;fillColor=none;align=left;verticalAlign=top;spacingLeft=4;spacingRight=4;overflow=hidden;rotatable=0;points=[[0,0.5],[1,0.5]];portConstraint=eastwest;whiteSpace=wrap;html=1;" vertex="1" parent="-CIr8k7pkAFZVgyKMaRs-24">
          <mxGeometry y="80" width="280" height="50" as="geometry" />
        </mxCell>
        <mxCell id="-CIr8k7pkAFZVgyKMaRs-33" value="" style="endArrow=open;endFill=1;endSize=12;html=1;rounded=0;entryX=0.5;entryY=0;entryDx=0;entryDy=0;" edge="1" parent="WIyWlLk6GJQsqaUBKTNV-1" source="-CIr8k7pkAFZVgyKMaRs-23" target="-CIr8k7pkAFZVgyKMaRs-12">
          <mxGeometry width="160" relative="1" as="geometry">
            <mxPoint x="440" y="240" as="sourcePoint" />
            <mxPoint x="620" y="270" as="targetPoint" />
          </mxGeometry>
        </mxCell>
        <mxCell id="-CIr8k7pkAFZVgyKMaRs-37" value="" style="endArrow=open;endFill=1;endSize=12;html=1;rounded=0;entryX=0.5;entryY=0;entryDx=0;entryDy=0;exitX=0.495;exitY=1.016;exitDx=0;exitDy=0;exitPerimeter=0;" edge="1" parent="WIyWlLk6GJQsqaUBKTNV-1" source="-CIr8k7pkAFZVgyKMaRs-15" target="-CIr8k7pkAFZVgyKMaRs-24">
          <mxGeometry width="160" relative="1" as="geometry">
            <mxPoint x="420" y="490" as="sourcePoint" />
            <mxPoint x="640" y="450" as="targetPoint" />
          </mxGeometry>
        </mxCell>
        <mxCell id="-CIr8k7pkAFZVgyKMaRs-42" value="&lt;font style=&quot;font-size: 20px;&quot;&gt;Dashboard&lt;/font&gt;" style="swimlane;fontStyle=1;align=center;verticalAlign=top;childLayout=stackLayout;horizontal=1;startSize=40;horizontalStack=0;resizeParent=1;resizeParentMax=0;resizeLast=0;collapsible=1;marginBottom=0;whiteSpace=wrap;html=1;" vertex="1" parent="WIyWlLk6GJQsqaUBKTNV-1">
          <mxGeometry x="960" y="300" width="200" height="150" as="geometry" />
        </mxCell>
        <mxCell id="-CIr8k7pkAFZVgyKMaRs-43" value="&lt;span style=&quot;font-size: 16px;&quot;&gt;- id&amp;nbsp; &amp;nbsp; &amp;nbsp; &amp;nbsp; &amp;nbsp; &amp;nbsp; &amp;nbsp; : String&lt;br&gt;- username : String&lt;br&gt;- position&amp;nbsp; &amp;nbsp; &amp;nbsp;: String&lt;br&gt;&lt;/span&gt;" style="text;strokeColor=none;fillColor=none;align=left;verticalAlign=top;spacingLeft=4;spacingRight=4;overflow=hidden;rotatable=0;points=[[0,0.5],[1,0.5]];portConstraint=eastwest;whiteSpace=wrap;html=1;" vertex="1" parent="-CIr8k7pkAFZVgyKMaRs-42">
          <mxGeometry y="40" width="200" height="70" as="geometry" />
        </mxCell>
        <mxCell id="-CIr8k7pkAFZVgyKMaRs-44" value="" style="line;strokeWidth=1;fillColor=none;align=left;verticalAlign=middle;spacingTop=-1;spacingLeft=3;spacingRight=3;rotatable=0;labelPosition=right;points=[];portConstraint=eastwest;strokeColor=inherit;" vertex="1" parent="-CIr8k7pkAFZVgyKMaRs-42">
          <mxGeometry y="110" width="200" height="10" as="geometry" />
        </mxCell>
        <mxCell id="-CIr8k7pkAFZVgyKMaRs-45" value="&lt;span style=&quot;font-size: 16px;&quot;&gt;+ Login()&amp;nbsp; &amp;nbsp; &amp;nbsp;: void&lt;/span&gt;" style="text;strokeColor=none;fillColor=none;align=left;verticalAlign=top;spacingLeft=4;spacingRight=4;overflow=hidden;rotatable=0;points=[[0,0.5],[1,0.5]];portConstraint=eastwest;whiteSpace=wrap;html=1;" vertex="1" parent="-CIr8k7pkAFZVgyKMaRs-42">
          <mxGeometry y="120" width="200" height="30" as="geometry" />
        </mxCell>
        <mxCell id="-CIr8k7pkAFZVgyKMaRs-46" value="&lt;font style=&quot;font-size: 20px;&quot;&gt;Administrator&lt;/font&gt;" style="swimlane;fontStyle=1;align=center;verticalAlign=top;childLayout=stackLayout;horizontal=1;startSize=40;horizontalStack=0;resizeParent=1;resizeParentMax=0;resizeLast=0;collapsible=1;marginBottom=0;whiteSpace=wrap;html=1;" vertex="1" parent="WIyWlLk6GJQsqaUBKTNV-1">
          <mxGeometry x="1280" y="300" width="200" height="150" as="geometry" />
        </mxCell>
        <mxCell id="-CIr8k7pkAFZVgyKMaRs-47" value="&lt;span style=&quot;font-size: 16px;&quot;&gt;- id&amp;nbsp; &amp;nbsp; &amp;nbsp; &amp;nbsp; &amp;nbsp; &amp;nbsp; &amp;nbsp; : String&lt;br&gt;- username : String&lt;br&gt;- position&amp;nbsp; &amp;nbsp; &amp;nbsp;: String&lt;br&gt;&lt;/span&gt;" style="text;strokeColor=none;fillColor=none;align=left;verticalAlign=top;spacingLeft=4;spacingRight=4;overflow=hidden;rotatable=0;points=[[0,0.5],[1,0.5]];portConstraint=eastwest;whiteSpace=wrap;html=1;" vertex="1" parent="-CIr8k7pkAFZVgyKMaRs-46">
          <mxGeometry y="40" width="200" height="70" as="geometry" />
        </mxCell>
        <mxCell id="-CIr8k7pkAFZVgyKMaRs-48" value="" style="line;strokeWidth=1;fillColor=none;align=left;verticalAlign=middle;spacingTop=-1;spacingLeft=3;spacingRight=3;rotatable=0;labelPosition=right;points=[];portConstraint=eastwest;strokeColor=inherit;" vertex="1" parent="-CIr8k7pkAFZVgyKMaRs-46">
          <mxGeometry y="110" width="200" height="10" as="geometry" />
        </mxCell>
        <mxCell id="-CIr8k7pkAFZVgyKMaRs-49" value="&lt;span style=&quot;font-size: 16px;&quot;&gt;+ Login()&amp;nbsp; &amp;nbsp; &amp;nbsp;: void&lt;/span&gt;" style="text;strokeColor=none;fillColor=none;align=left;verticalAlign=top;spacingLeft=4;spacingRight=4;overflow=hidden;rotatable=0;points=[[0,0.5],[1,0.5]];portConstraint=eastwest;whiteSpace=wrap;html=1;" vertex="1" parent="-CIr8k7pkAFZVgyKMaRs-46">
          <mxGeometry y="120" width="200" height="30" as="geometry" />
        </mxCell>
        <mxCell id="-CIr8k7pkAFZVgyKMaRs-51" value="&lt;font style=&quot;font-size: 20px;&quot;&gt;ClientThreadChat&lt;/font&gt;" style="swimlane;fontStyle=1;align=center;verticalAlign=top;childLayout=stackLayout;horizontal=1;startSize=40;horizontalStack=0;resizeParent=1;resizeParentMax=0;resizeLast=0;collapsible=1;marginBottom=0;whiteSpace=wrap;html=1;" vertex="1" parent="WIyWlLk6GJQsqaUBKTNV-1">
          <mxGeometry x="800" y="960" width="400" height="230" as="geometry" />
        </mxCell>
        <mxCell id="-CIr8k7pkAFZVgyKMaRs-52" value="&lt;span style=&quot;font-size: 16px;&quot;&gt;- socket&amp;nbsp; &amp;nbsp; &amp;nbsp; &amp;nbsp; &amp;nbsp; &amp;nbsp; &amp;nbsp; &amp;nbsp; : Socket&amp;nbsp;&lt;br&gt;- username&amp;nbsp; &amp;nbsp; &amp;nbsp; &amp;nbsp; &amp;nbsp; : String&lt;br&gt;- bufferedReader : BufferedReader&lt;br&gt;- bufferedWriter&amp;nbsp; &amp;nbsp;: BufferedWriter&lt;br&gt;&lt;/span&gt;" style="text;strokeColor=none;fillColor=none;align=left;verticalAlign=top;spacingLeft=4;spacingRight=4;overflow=hidden;rotatable=0;points=[[0,0.5],[1,0.5]];portConstraint=eastwest;whiteSpace=wrap;html=1;" vertex="1" parent="-CIr8k7pkAFZVgyKMaRs-51">
          <mxGeometry y="40" width="400" height="90" as="geometry" />
        </mxCell>
        <mxCell id="-CIr8k7pkAFZVgyKMaRs-53" value="" style="line;strokeWidth=1;fillColor=none;align=left;verticalAlign=middle;spacingTop=-1;spacingLeft=3;spacingRight=3;rotatable=0;labelPosition=right;points=[];portConstraint=eastwest;strokeColor=inherit;" vertex="1" parent="-CIr8k7pkAFZVgyKMaRs-51">
          <mxGeometry y="130" width="400" height="10" as="geometry" />
        </mxCell>
        <mxCell id="-CIr8k7pkAFZVgyKMaRs-54" value="+&amp;nbsp;&lt;span style=&quot;text-align: center;&quot;&gt;&lt;font style=&quot;font-size: 16px;&quot;&gt;ClientThreadChat(socket: Socket, username: String)&amp;nbsp;&lt;/font&gt;&lt;/span&gt;&lt;span style=&quot;font-size: 16px;&quot;&gt;&lt;br&gt;+ doSend()&amp;nbsp; &amp;nbsp; &amp;nbsp; &amp;nbsp; &amp;nbsp; &amp;nbsp;: void&lt;br&gt;+ doReceived()&amp;nbsp; &amp;nbsp; : void&lt;br&gt;+ doClose()&amp;nbsp; &amp;nbsp; &amp;nbsp; &amp;nbsp; &amp;nbsp; : void&lt;br&gt;&lt;/span&gt;" style="text;strokeColor=none;fillColor=none;align=left;verticalAlign=top;spacingLeft=4;spacingRight=4;overflow=hidden;rotatable=0;points=[[0,0.5],[1,0.5]];portConstraint=eastwest;whiteSpace=wrap;html=1;" vertex="1" parent="-CIr8k7pkAFZVgyKMaRs-51">
          <mxGeometry y="140" width="400" height="90" as="geometry" />
        </mxCell>
        <mxCell id="-CIr8k7pkAFZVgyKMaRs-55" value="&lt;font style=&quot;font-size: 20px;&quot;&gt;ClientThreadFile&lt;/font&gt;" style="swimlane;fontStyle=1;align=center;verticalAlign=top;childLayout=stackLayout;horizontal=1;startSize=40;horizontalStack=0;resizeParent=1;resizeParentMax=0;resizeLast=0;collapsible=1;marginBottom=0;whiteSpace=wrap;html=1;" vertex="1" parent="WIyWlLk6GJQsqaUBKTNV-1">
          <mxGeometry x="1241" y="960" width="399" height="210" as="geometry" />
        </mxCell>
        <mxCell id="-CIr8k7pkAFZVgyKMaRs-56" value="- &lt;font style=&quot;font-size: 16px;&quot;&gt;socket&amp;nbsp; &amp;nbsp; &amp;nbsp; &amp;nbsp; &amp;nbsp; &amp;nbsp; &amp;nbsp; &amp;nbsp; &amp;nbsp; &amp;nbsp; &amp;nbsp; &amp;nbsp; &amp;nbsp; &amp;nbsp;: Socket&lt;br&gt;&lt;/font&gt;- &lt;font style=&quot;font-size: 16px;&quot;&gt;username&amp;nbsp; &amp;nbsp; &amp;nbsp; &amp;nbsp; &amp;nbsp; &amp;nbsp; &amp;nbsp; &amp;nbsp; &amp;nbsp; &amp;nbsp; &amp;nbsp;: String&lt;/font&gt;&lt;br&gt;- &lt;font style=&quot;font-size: 16px;&quot;&gt;data&lt;/font&gt;&lt;font style=&quot;font-size: 16px;&quot;&gt;In&lt;/font&gt;&lt;span style=&quot;font-size: 16px;&quot;&gt;putStream&amp;nbsp; &amp;nbsp; &amp;nbsp; &amp;nbsp; &amp;nbsp; &amp;nbsp;: Data&lt;/span&gt;&lt;font style=&quot;font-size: 16px;&quot;&gt;InputStream&lt;/font&gt;&lt;br&gt;- &lt;font style=&quot;font-size: 16px;&quot;&gt;dataOutputStream&amp;nbsp; &amp;nbsp; &amp;nbsp; &amp;nbsp; : D&lt;/font&gt;&lt;span style=&quot;font-size: 16px;&quot;&gt;ataOutputStream&lt;/span&gt;&lt;span style=&quot;font-size: 16px;&quot;&gt;&lt;br&gt;&lt;/span&gt;" style="text;strokeColor=none;fillColor=none;align=left;verticalAlign=top;spacingLeft=4;spacingRight=4;overflow=hidden;rotatable=0;points=[[0,0.5],[1,0.5]];portConstraint=eastwest;whiteSpace=wrap;html=1;" vertex="1" parent="-CIr8k7pkAFZVgyKMaRs-55">
          <mxGeometry y="40" width="399" height="90" as="geometry" />
        </mxCell>
        <mxCell id="-CIr8k7pkAFZVgyKMaRs-57" value="" style="line;strokeWidth=1;fillColor=none;align=left;verticalAlign=middle;spacingTop=-1;spacingLeft=3;spacingRight=3;rotatable=0;labelPosition=right;points=[];portConstraint=eastwest;strokeColor=inherit;" vertex="1" parent="-CIr8k7pkAFZVgyKMaRs-55">
          <mxGeometry y="130" width="399" height="10" as="geometry" />
        </mxCell>
        <mxCell id="-CIr8k7pkAFZVgyKMaRs-58" value="&lt;font style=&quot;font-size: 16px;&quot;&gt;+&amp;nbsp;&lt;font style=&quot;border-color: var(--border-color); font-size: 16px;&quot;&gt;ClientThreadFile(socket: Socket, username: String)&amp;nbsp;&lt;/font&gt;&lt;span style=&quot;border-color: var(--border-color);&quot;&gt;&lt;br style=&quot;border-color: var(--border-color);&quot;&gt;&lt;/span&gt;+ doUp(path : String)&amp;nbsp; &amp;nbsp; &amp;nbsp; : void&lt;br&gt;+ doDown(path : String) : void&lt;/font&gt;" style="text;strokeColor=none;fillColor=none;align=left;verticalAlign=top;spacingLeft=4;spacingRight=4;overflow=hidden;rotatable=0;points=[[0,0.5],[1,0.5]];portConstraint=eastwest;whiteSpace=wrap;html=1;" vertex="1" parent="-CIr8k7pkAFZVgyKMaRs-55">
          <mxGeometry y="140" width="399" height="70" as="geometry" />
        </mxCell>
        <mxCell id="-CIr8k7pkAFZVgyKMaRs-59" value="" style="endArrow=open;endFill=1;endSize=12;html=1;rounded=0;exitX=0.5;exitY=0.981;exitDx=0;exitDy=0;exitPerimeter=0;entryX=0.5;entryY=0;entryDx=0;entryDy=0;" edge="1" parent="WIyWlLk6GJQsqaUBKTNV-1" source="-CIr8k7pkAFZVgyKMaRs-7" target="-CIr8k7pkAFZVgyKMaRs-42">
          <mxGeometry width="160" relative="1" as="geometry">
            <mxPoint x="740" y="510" as="sourcePoint" />
            <mxPoint x="900" y="510" as="targetPoint" />
          </mxGeometry>
        </mxCell>
        <mxCell id="-CIr8k7pkAFZVgyKMaRs-60" value="" style="endArrow=open;endFill=1;endSize=12;html=1;rounded=0;entryX=0.5;entryY=0;entryDx=0;entryDy=0;exitX=0.496;exitY=1.019;exitDx=0;exitDy=0;exitPerimeter=0;" edge="1" parent="WIyWlLk6GJQsqaUBKTNV-1" source="-CIr8k7pkAFZVgyKMaRs-7" target="-CIr8k7pkAFZVgyKMaRs-46">
          <mxGeometry width="160" relative="1" as="geometry">
            <mxPoint x="1260" y="160" as="sourcePoint" />
            <mxPoint x="900" y="510" as="targetPoint" />
          </mxGeometry>
        </mxCell>
        <mxCell id="-CIr8k7pkAFZVgyKMaRs-61" value="" style="endArrow=open;endFill=1;endSize=12;html=1;rounded=0;entryX=0.5;entryY=0;entryDx=0;entryDy=0;exitX=0.5;exitY=1.015;exitDx=0;exitDy=0;exitPerimeter=0;" edge="1" parent="WIyWlLk6GJQsqaUBKTNV-1" source="-CIr8k7pkAFZVgyKMaRs-45" target="-CIr8k7pkAFZVgyKMaRs-8">
          <mxGeometry width="160" relative="1" as="geometry">
            <mxPoint x="1050" y="490" as="sourcePoint" />
            <mxPoint x="1080" y="640" as="targetPoint" />
          </mxGeometry>
        </mxCell>
        <mxCell id="-CIr8k7pkAFZVgyKMaRs-63" value="" style="endArrow=open;endFill=1;endSize=12;html=1;rounded=0;entryX=0.5;entryY=0;entryDx=0;entryDy=0;exitX=0.498;exitY=0.985;exitDx=0;exitDy=0;exitPerimeter=0;" edge="1" parent="WIyWlLk6GJQsqaUBKTNV-1" source="-CIr8k7pkAFZVgyKMaRs-49" target="-CIr8k7pkAFZVgyKMaRs-8">
          <mxGeometry width="160" relative="1" as="geometry">
            <mxPoint x="1450" y="480" as="sourcePoint" />
            <mxPoint x="1080" y="640" as="targetPoint" />
          </mxGeometry>
        </mxCell>
        <mxCell id="-CIr8k7pkAFZVgyKMaRs-64" value="" style="endArrow=open;endFill=1;endSize=12;html=1;rounded=0;entryX=0.5;entryY=0;entryDx=0;entryDy=0;exitX=0.502;exitY=1.002;exitDx=0;exitDy=0;exitPerimeter=0;" edge="1" parent="WIyWlLk6GJQsqaUBKTNV-1" source="-CIr8k7pkAFZVgyKMaRs-11" target="-CIr8k7pkAFZVgyKMaRs-55">
          <mxGeometry width="160" relative="1" as="geometry">
            <mxPoint x="1270" y="810" as="sourcePoint" />
            <mxPoint x="1310" y="700" as="targetPoint" />
          </mxGeometry>
        </mxCell>
        <mxCell id="-CIr8k7pkAFZVgyKMaRs-65" value="" style="endArrow=open;endFill=1;endSize=12;html=1;rounded=0;entryX=0.5;entryY=0;entryDx=0;entryDy=0;exitX=0.5;exitY=1;exitDx=0;exitDy=0;" edge="1" parent="WIyWlLk6GJQsqaUBKTNV-1" source="-CIr8k7pkAFZVgyKMaRs-8" target="-CIr8k7pkAFZVgyKMaRs-51">
          <mxGeometry width="160" relative="1" as="geometry">
            <mxPoint x="1250" y="810" as="sourcePoint" />
            <mxPoint x="1310" y="700" as="targetPoint" />
          </mxGeometry>
        </mxCell>
      </root>
    </mxGraphModel>
  </diagram>
</mxfile>
